<mxfile host="app.diagrams.net" modified="2023-07-15T00:56:02.431Z" agent="Mozilla/5.0 (Macintosh; Intel Mac OS X 10_15_7) AppleWebKit/537.36 (KHTML, like Gecko) Chrome/114.0.0.0 Safari/537.36" version="21.6.2" etag="HyKyyjw1RxMwjTdFS4JG" type="github">
  <diagram name="第 1 页" id="8J0nVcGlbO7vgvr5VN-F">
    <mxGraphModel>
      <root>
        <mxCell id="0" />
        <mxCell id="1" parent="0" />
      </root>
    </mxGraphModel>
  </diagram>
</mxfile>
